PathFileType	3	(X/Y/Z)	D:\minhoCalibration\240510\subject1_KPNP\preferred\preferred14.trc
DataRate	CameraRate	NumFrames	NumMarkers	Units	OrigDataRate	OrigDataStartFrame	OrigNumFrames
200.0	200.0	24	10	mm	200.0	341	208	
Frame#	Time	Left_Ankle_Outer1			Left_Ankle_Inner1			Left_Knee_Outer1			Left_Knee_Inner1			Left_Wrist1			Right_Wrist1			Right_Knee_Inner1			Right_Knee_Outer1			Right_Ankle_Inner1			Right_Ankle_Outer1			
		X1	Y1	Z1	X2	Y2	Z2	X3	Y3	Z3	X4	Y4	Z4	X5	Y5	Z5	X6	Y6	Z6	X7	Y7	Z7	X8	Y8	Z8	X9	Y9	Z9	X10	Y10	Z10	
341	1.695	-433.87949	135.0928	-614.06573	-493.37433	132.7308	-607.40039	-505.2771	583.34088	-535.4975	-592.87238	525.76312	-584.43591	-507.55841	986.45679	-725.18457	-689.19983	989.31946	-1030.6112	-697.69171	516.12823	-977.05396	-725.04523	549.47339	-1077.7567	-603.0929	110.02446	-1132.97	-683.03534	104.08581	-1212.2968
342	1.7	-433.80838	135.46115	-613.83771	-493.32654	133.2688	-606.70996	-502.84256	583.87891	-533.37	-591.15552	526.33136	-580.9939	-506.78696	986.20117	-723.99725	-689.02777	989.4245	-1029.5547	-696.59644	515.97284	-976.77661	-724.07391	549.53204	-1077.4012	-602.98993	109.90003	-1132.8807	-682.62158	105.38085	-1212.9058
343	1.705	-433.94559	135.75159	-613.69385	-493.43524	133.82175	-605.89136	-500.34402	584.28424	-531.19531	-589.61157	527.14893	-577.61304	-505.95917	985.89648	-722.76593	-688.72351	989.23499	-1028.058	-695.50421	515.76929	-976.51636	-723.01422	549.53723	-1077.0548	-602.87512	109.78927	-1132.8566	-682.4436	105.57437	-1212.8541
344	1.71	-434.2645	136.00688	-613.56592	-493.39468	134.0708	-604.79639	-497.80432	584.68835	-529.05713	-587.9743	527.86707	-574.16852	-505.07248	985.58136	-721.49097	-688.25183	988.9281	-1026.4355	-694.42633	515.54944	-976.12769	-722.20947	549.64551	-1076.7603	-602.63477	109.6514	-1132.8416	-682.22052	105.59016	-1212.7947
345	1.715	-434.75375	136.18745	-613.54218	-493.76459	134.53621	-604.08569	-495.22415	584.97028	-526.90973	-586.26807	528.59747	-570.69312	-504.19818	985.26978	-720.14691	-687.38025	988.84888	-1025.6771	-693.38123	515.31879	-975.76147	-721.08313	549.55688	-1076.199	-602.58344	109.45536	-1132.6873	-682.08154	105.68096	-1212.7638
346	1.72	-435.27457	136.38872	-613.52667	-494.5126	135.19087	-603.74176	-492.63336	585.24652	-524.82446	-584.75134	529.37354	-567.29852	-503.29083	984.90271	-718.73682	-687.46155	988.45654	-1023.1692	-692.34772	515.05151	-975.33276	-719.91858	549.48566	-1075.5325	-602.51062	109.32454	-1132.6069	-681.84241	105.84055	-1212.6342
347	1.725	-436.07916	136.53069	-613.59692	-495.21332	135.61823	-603.06268	-490.02142	585.43091	-522.72809	-583.03149	529.98926	-563.88458	-502.3089	984.55255	-717.35559	-687.05011	988.13568	-1021.4002	-691.36725	514.87354	-974.70886	-719.06647	549.54266	-1075.1083	-602.39496	109.23435	-1132.4556	-681.70569	106.11118	-1212.5137
348	1.73	-437.15295	136.55695	-613.70276	-496.00455	135.90976	-602.35382	-487.40042	585.56	-520.65906	-581.36108	530.66626	-560.37354	-501.39291	984.12061	-715.88501	-686.51337	987.79071	-1019.5967	-690.435	514.52216	-974.11584	-717.92676	549.44867	-1074.3536	-602.229	109.04717	-1132.2992	-681.5343	106.34102	-1212.3256
349	1.735	-438.41422	136.55899	-613.87543	-496.91513	136.10596	-601.27051	-484.7442	585.65442	-518.57532	-579.61139	531.36676	-556.89447	-500.39993	983.71826	-714.37012	-685.94409	987.56195	-1017.9911	-689.48108	514.22919	-973.46301	-717.0097	549.64569	-1073.9081	-602.07001	108.9296	-1132.1687	-681.20374	107.19949	-1212.0544
350	1.74	-439.86728	136.59514	-614.03894	-498.21548	136.57408	-600.83704	-482.15427	585.67401	-516.48035	-577.84668	531.90283	-553.41211	-499.27911	983.2804	-712.85394	-685.47455	987.21466	-1015.8239	-688.58502	513.88483	-972.71857	-716.07056	549.45563	-1073.1158	-601.87604	108.75489	-1131.9316	-681.14008	105.88493	-1211.829
351	1.745	-441.47543	136.60257	-614.24542	-499.62216	136.94026	-600.18463	-479.56708	585.67041	-514.41827	-576.16895	532.5152	-549.97125	-498.24423	982.81128	-711.20575	-684.88019	986.86469	-1013.8207	-687.7373	513.50854	-971.84814	-714.87604	549.24933	-1072.1704	-601.66693	108.59991	-1131.7372	-681.00287	106.4186	-1211.6693
352	1.75	-443.28983	136.51279	-614.46698	-500.94397	137.10283	-599.0661	-477.00027	585.58643	-512.37866	-574.43219	533.1217	-546.5199	-497.14005	982.29474	-709.64984	-684.17694	986.13812	-1011.2341	-686.86847	513.11346	-970.93982	-714.17004	549.29236	-1071.439	-601.4892	108.4435	-1131.416	-680.63135	107.38396	-1211.5177
353	1.755	-445.3855	136.39282	-614.62036	-502.66623	137.34607	-598.41388	-473.8013	585.56494	-510.68692	-572.80603	533.68188	-543.01581	-495.94772	981.77759	-708.02301	-683.76086	986.02588	-1009.588	-685.91077	512.67444	-970.24719	-713.021	549.0163	-1070.3643	-601.28442	108.26189	-1131.1382	-680.27283	107.3983	-1211.2732
354	1.76	-447.7381	136.13831	-614.66187	-504.55243	137.47888	-597.59094	-471.53812	585.35352	-508.47037	-571.1463	534.18823	-539.53931	-494.83868	981.2262	-706.24133	-683.21198	985.6983	-1007.5071	-685.43359	512.29437	-969.07446	-712.38202	549.09363	-1069.6268	-601.11713	108.10988	-1130.7896	-680.04681	107.73872	-1210.9128
355	1.765	-450.13617	136.04762	-614.64752	-506.7305	137.74858	-596.79016	-469.04105	585.03687	-506.42752	-569.55505	534.59186	-536.16052	-493.56921	980.60913	-704.5882	-682.28571	985.77283	-1005.6843	-684.74146	511.76672	-968.0448	-711.45496	548.71912	-1068.2019	-600.91187	108.01945	-1130.4146	-679.69116	107.97432	-1210.6145
356	1.77	-452.66336	135.89459	-614.57666	-508.88867	137.96133	-595.79504	-466.66827	584.60223	-504.37601	-568.02972	534.97644	-532.76843	-492.26062	979.92688	-702.79504	-681.93121	985.09686	-1003.1766	-684.04291	511.31583	-966.8468	-710.73035	548.52539	-1067.1428	-600.6875	107.87122	-1130.0496	-679.47711	108.04989	-1210.3038
357	1.775	-455.43814	135.64807	-614.44806	-511.28757	137.96097	-594.716	-464.33862	584.12659	-502.34747	-566.52625	535.27228	-529.3985	-491.01648	979.18726	-701.03558	-681.88409	984.11267	-999.60736	-683.23114	510.83298	-965.73004	-710.30823	548.4928	-1066.2346	-600.44031	107.72992	-1129.626	-679.16803	108.30196	-1209.9283
358	1.78	-458.39133	135.38632	-614.18695	-513.79742	138.03806	-593.62231	-462.11768	583.56635	-500.27597	-565.12018	535.51843	-526.0481	-489.68668	978.34357	-699.22589	-681.29083	984.23505	-997.81934	-682.90277	510.23709	-964.3385	-709.61798	548.03784	-1064.6947	-600.33551	107.64377	-1129.2457	-678.90778	108.40968	-1209.64
359	1.785	-461.56668	135.1907	-613.8316	-516.46887	138.08537	-592.49158	-460.05081	582.935	-498.16498	-563.82471	535.72729	-522.73041	-488.31772	977.46954	-697.38885	-680.66547	983.64972	-995.78729	-682.31995	509.70297	-963.16901	-709.34857	547.93018	-1063.486	-600.18341	107.52235	-1128.8491	-678.67389	108.58891	-1209.241
360	1.79	-464.78192	134.9575	-613.42456	-519.40887	138.0768	-591.29675	-458.0632	582.20587	-496.03668	-562.638	535.90973	-519.30927	-486.96973	976.45593	-695.63391	-680.28497	983.22437	-993.27814	-682.0603	509.62473	-961.42926	-708.84064	547.46399	-1061.7727	-600.09381	107.36559	-1128.4451	-678.52747	108.16624	-1208.8108
361	1.795	-468.16122	134.66498	-612.94745	-522.33044	138.11298	-589.86627	-456.20508	581.44049	-493.8851	-561.49121	535.94257	-516.04578	-485.50095	975.36621	-693.82965	-679.93781	982.71863	-990.7312	-681.56055	508.73935	-960.19708	-708.61389	547.1474	-1060.2802	-599.87201	107.22816	-1128.0704	-678.30878	108.40819	-1208.4681
362	1.8	-471.64807	134.45361	-612.28418	-525.29193	138.11029	-588.30359	-454.51196	580.59729	-491.65408	-560.5094	535.91565	-512.72729	-484.03357	974.19611	-691.96875	-679.604	982.19867	-988.08948	-680.96564	508.09879	-958.91888	-708.46448	546.81042	-1058.7145	-599.67169	107.18342	-1127.7229	-678.00726	109.30859	-1208.2288
363	1.805	-475.33923	134.10555	-611.5415	-528.3988	137.98904	-586.84363	-452.90656	579.66302	-489.46826	-559.58942	535.81549	-509.45932	-482.4679	972.90643	-690.14069	-679.34644	981.63989	-985.3996	-680.47614	507.64322	-957.49158	-708.39258	546.47229	-1057.0043	-599.4314	107.04145	-1127.3607	-677.88409	109.45101	-1207.8992
364	1.81	-478.98236	133.79686	-610.70178	-531.5481	137.89825	-585.10889	-451.43076	578.73682	-487.19217	-558.78149	535.68396	-506.12323	-480.97742	971.55896	-688.34814	-679.14594	981.19458	-982.55475	-680.36755	506.80356	-955.68115	-708.35815	546.08789	-1055.3494	-599.22876	106.92105	-1127.072	-677.72961	109.61089	-1207.5665
